<?xml version="1.0" standalone="no"?>
<!DOCTYPE svg PUBLIC "-//W3C//DTD SVG 20010904//EN"
 "http://www.w3.org/TR/2001/REC-SVG-20010904/DTD/svg10.dtd">
<svg version="1.0" xmlns="http://www.w3.org/2000/svg"
 width="700.000000pt" height="700.000000pt" viewBox="0 0 700.000000 700.000000"
 preserveAspectRatio="xMidYMid meet">
<metadata>
Created by potrace 1.11, written by Peter Selinger 2001-2013
</metadata>
<g transform="translate(0.000000,700.000000) scale(0.100000,-0.100000)"
fill="#000000" stroke="none">
<path d="M2904 6981 c-80 -37 -126 -103 -130 -189 -3 -66 16 -115 64 -164 48
-51 103 -66 232 -66 58 0 113 -1 123 -1 16 -1 17 -22 17 -300 l0 -299 -32 -6
c-18 -3 -58 -9 -88 -12 -30 -3 -58 -8 -61 -10 -3 -2 -21 -6 -40 -9 -290 -50
-729 -250 -982 -448 -21 -16 -41 -27 -45 -23 -4 3 -100 99 -214 212 l-207 207
92 109 c97 115 115 148 116 214 2 77 -38 143 -114 192 -52 33 -141 35 -200 5
-34 -18 -245 -228 -723 -720 -87 -90 -104 -121 -108 -193 -7 -134 106 -242
236 -227 75 9 87 17 241 162 l46 44 215 -215 c167 -167 212 -217 202 -225 -11
-9 -147 -211 -192 -284 -29 -49 -121 -235 -137 -280 -10 -27 -22 -54 -25 -60
-10 -15 -66 -188 -89 -275 -28 -107 -53 -243 -60 -322 -1 -5 -136 -8 -301 -8
-165 0 -300 3 -301 8 0 4 -1 66 -3 137 -2 167 -20 209 -113 266 -30 19 -52 24
-103 24 -73 -1 -113 -17 -160 -66 -62 -65 -61 -58 -58 -674 3 -615 0 -584 65
-649 86 -88 226 -85 308 5 52 58 58 80 61 229 l2 135 300 3 301 2 5 -32 c3
-18 8 -49 10 -68 3 -19 10 -60 16 -90 6 -30 14 -66 16 -80 8 -38 64 -228 81
-274 90 -240 183 -416 318 -604 37 -52 65 -95 63 -97 -1 -3 -97 -99 -212 -214
l-209 -210 -101 86 c-122 104 -169 128 -241 120 -75 -8 -134 -46 -177 -115
-28 -46 -29 -143 0 -197 25 -49 783 -806 830 -829 80 -41 176 -23 244 45 55
55 73 108 63 183 -8 59 -23 83 -127 204 l-77 89 200 201 c110 110 207 206 214
212 12 10 28 2 82 -38 219 -161 550 -326 759 -377 10 -3 53 -14 94 -25 65 -17
287 -60 311 -60 5 0 9 -135 9 -300 l0 -300 -27 -1 c-16 0 -73 -1 -128 -1 -115
-1 -165 -15 -213 -61 -43 -41 -58 -71 -67 -128 -13 -86 31 -176 108 -220 l42
-24 565 -2 c546 -2 566 -2 609 17 83 38 126 106 125 200 0 73 -15 109 -66 157
-50 48 -80 56 -228 59 l-135 2 -3 301 c-2 263 0 301 13 302 8 1 18 2 23 3 4 1
30 5 57 10 376 56 748 210 1063 438 46 33 86 57 90 54 4 -3 100 -99 214 -212
l206 -206 -85 -101 c-119 -141 -139 -192 -112 -290 13 -48 71 -113 118 -134
54 -23 138 -21 186 4 23 13 206 188 436 420 415 417 406 405 414 501 5 71 -48
162 -116 198 -18 9 -57 18 -88 21 -72 6 -128 -23 -250 -129 l-88 -77 -209 210
c-115 115 -211 211 -212 214 -2 2 26 45 63 97 206 286 348 615 414 958 20 104
29 153 30 178 1 9 68 12 301 12 233 0 300 -3 301 -12 0 -7 2 -71 3 -143 3
-143 11 -168 68 -221 49 -45 97 -63 159 -60 86 4 153 51 190 131 17 37 19 78
19 585 0 326 -4 559 -10 579 -24 86 -118 161 -200 161 -49 0 -119 -25 -152
-55 -57 -50 -72 -98 -75 -235 -1 -69 -2 -131 -2 -137 -1 -10 -68 -13 -300 -13
l-299 0 -6 27 c-3 16 -8 51 -11 78 -3 28 -11 70 -16 95 -6 25 -13 56 -15 70
-11 60 -73 263 -100 325 -7 17 -22 53 -33 82 -52 131 -161 325 -266 471 -37
52 -65 95 -63 98 1 2 97 98 212 213 l209 210 91 -77 c50 -42 93 -80 96 -84 13
-17 99 -48 137 -48 86 0 185 71 210 153 14 47 7 120 -16 165 -11 20 -199 215
-418 433 -387 386 -399 397 -448 407 -114 24 -206 -21 -254 -123 -26 -55 -27
-117 -2 -170 10 -23 57 -86 104 -142 l86 -100 -210 -209 c-115 -115 -211 -211
-214 -213 -2 -2 -28 14 -57 36 -290 221 -694 396 -1043 452 -38 6 -81 13 -95
15 -14 3 -31 5 -37 5 -10 1 -13 68 -13 301 0 233 3 300 13 301 6 0 68 2 137 3
139 3 162 9 219 61 89 81 91 224 6 310 -63 62 -36 60 -655 62 -534 3 -567 2
-606 -16z m-91 -1891 c108 -22 217 -93 289 -187 67 -89 97 -169 103 -283 17
-301 -229 -547 -533 -534 -188 8 -358 125 -438 298 -71 155 -57 341 35 484
119 184 322 267 544 222z m1688 -2349 c182 -82 219 -340 68 -475 -188 -169
-483 -38 -482 214 0 128 83 242 204 279 50 15 157 6 210 -18z"/>
</g>
</svg>
